<mxfile host="app.diagrams.net" modified="2023-04-23T16:56:48.132Z" agent="Mozilla/5.0 (Windows NT 10.0; Win64; x64) AppleWebKit/537.36 (KHTML, like Gecko) Chrome/112.0.0.0 Safari/537.36" etag="1s20f5dihX0Q3iaUwU-A" version="21.2.1" type="device">
  <diagram name="PÃ¡gina-1" id="ehgF72icQ8gTCcqaflWe">
    <mxGraphModel dx="874" dy="476" grid="1" gridSize="10" guides="1" tooltips="1" connect="1" arrows="1" fold="1" page="1" pageScale="1" pageWidth="827" pageHeight="1169" background="#ffffff" math="0" shadow="0">
      <root>
        <mxCell id="0" />
        <mxCell id="1" parent="0" />
        <mxCell id="daAKzE9-0zMQfF_IG0f5-1" value="&lt;p style=&quot;line-height: 50%;&quot;&gt;&lt;span&gt;Requirements:&lt;/span&gt;&lt;br&gt;&lt;/p&gt;&lt;ul style=&quot;line-height: 100%;&quot;&gt;&lt;br&gt;&lt;li&gt;Maintenance activities (8-12 activities)&lt;/li&gt;&lt;li&gt;Start point: Maintenance Inquiry&lt;/li&gt;&lt;li&gt;Endpoint: Maintenance Complete&lt;/li&gt;&lt;br&gt;&lt;/ul&gt;&lt;br&gt;&lt;span&gt;Example action items:&lt;/span&gt;&lt;br&gt;&lt;ul style=&quot;line-height: 50%;&quot;&gt;&lt;br&gt;&lt;li&gt;Technical diagnosis&lt;/li&gt;&lt;br&gt;&lt;li&gt;Assign service member&lt;/li&gt;&lt;br&gt;&lt;li&gt;Order parts&lt;/li&gt;&lt;br&gt;&lt;/ul&gt;&lt;p&gt;&lt;/p&gt;" style="text;html=1;strokeColor=none;fillColor=none;align=left;verticalAlign=middle;whiteSpace=wrap;rounded=0;fontFamily=Coming Soon;fontSource=https%3A%2F%2Ffonts.googleapis.com%2Fcss%3Ffamily%3DComing%2BSoon;fontStyle=1" parent="1" vertex="1">
          <mxGeometry x="40" y="40" width="210" height="280" as="geometry" />
        </mxCell>
        <mxCell id="daAKzE9-0zMQfF_IG0f5-2" value="&lt;h2&gt;ENTERPRISE - ACTIVITY DIAGRAM&lt;/h2&gt;" style="text;html=1;strokeColor=none;fillColor=none;align=center;verticalAlign=middle;whiteSpace=wrap;rounded=0;fontFamily=Coming Soon;fontSource=https%3A%2F%2Ffonts.googleapis.com%2Fcss%3Ffamily%3DComing%2BSoon;fontStyle=5" parent="1" vertex="1">
          <mxGeometry x="320" y="40" width="320" height="30" as="geometry" />
        </mxCell>
        <mxCell id="jEPlvoe9myMkqVrqk7bV-4" value="" style="edgeStyle=orthogonalEdgeStyle;rounded=0;orthogonalLoop=1;jettySize=auto;html=1;" edge="1" parent="1" source="jEPlvoe9myMkqVrqk7bV-1" target="jEPlvoe9myMkqVrqk7bV-3">
          <mxGeometry relative="1" as="geometry" />
        </mxCell>
        <mxCell id="jEPlvoe9myMkqVrqk7bV-1" value="" style="ellipse;whiteSpace=wrap;html=1;aspect=fixed;fillColor=#000000;" vertex="1" parent="1">
          <mxGeometry x="280" y="240" width="40" height="40" as="geometry" />
        </mxCell>
        <mxCell id="jEPlvoe9myMkqVrqk7bV-2" value="Maintenance Inquiry" style="text;html=1;strokeColor=none;fillColor=none;align=center;verticalAlign=middle;whiteSpace=wrap;rounded=0;" vertex="1" parent="1">
          <mxGeometry x="245" y="280" width="110" height="30" as="geometry" />
        </mxCell>
        <mxCell id="jEPlvoe9myMkqVrqk7bV-9" style="edgeStyle=orthogonalEdgeStyle;rounded=0;orthogonalLoop=1;jettySize=auto;html=1;entryX=0;entryY=0.5;entryDx=0;entryDy=0;" edge="1" parent="1" source="jEPlvoe9myMkqVrqk7bV-3" target="jEPlvoe9myMkqVrqk7bV-5">
          <mxGeometry relative="1" as="geometry" />
        </mxCell>
        <mxCell id="jEPlvoe9myMkqVrqk7bV-3" value="First line technical diagnosis" style="rounded=1;whiteSpace=wrap;html=1;" vertex="1" parent="1">
          <mxGeometry x="400" y="230" width="120" height="60" as="geometry" />
        </mxCell>
        <mxCell id="jEPlvoe9myMkqVrqk7bV-11" value="No" style="edgeStyle=orthogonalEdgeStyle;rounded=0;orthogonalLoop=1;jettySize=auto;html=1;entryX=0;entryY=0.5;entryDx=0;entryDy=0;" edge="1" parent="1" source="jEPlvoe9myMkqVrqk7bV-5" target="jEPlvoe9myMkqVrqk7bV-10">
          <mxGeometry relative="1" as="geometry" />
        </mxCell>
        <mxCell id="jEPlvoe9myMkqVrqk7bV-37" value="Yes" style="edgeStyle=orthogonalEdgeStyle;rounded=0;orthogonalLoop=1;jettySize=auto;html=1;" edge="1" parent="1" source="jEPlvoe9myMkqVrqk7bV-5" target="jEPlvoe9myMkqVrqk7bV-36">
          <mxGeometry x="-0.8571" relative="1" as="geometry">
            <mxPoint as="offset" />
          </mxGeometry>
        </mxCell>
        <mxCell id="jEPlvoe9myMkqVrqk7bV-5" value="" style="rhombus;whiteSpace=wrap;html=1;" vertex="1" parent="1">
          <mxGeometry x="600" y="240" width="40" height="40" as="geometry" />
        </mxCell>
        <mxCell id="jEPlvoe9myMkqVrqk7bV-6" value="&lt;i&gt;Could be fixed right now?&lt;/i&gt;" style="text;html=1;strokeColor=none;fillColor=none;align=center;verticalAlign=middle;whiteSpace=wrap;rounded=0;" vertex="1" parent="1">
          <mxGeometry x="555" y="210" width="130" height="30" as="geometry" />
        </mxCell>
        <mxCell id="jEPlvoe9myMkqVrqk7bV-13" value="" style="edgeStyle=orthogonalEdgeStyle;rounded=0;orthogonalLoop=1;jettySize=auto;html=1;" edge="1" parent="1" source="jEPlvoe9myMkqVrqk7bV-10" target="jEPlvoe9myMkqVrqk7bV-12">
          <mxGeometry relative="1" as="geometry" />
        </mxCell>
        <mxCell id="jEPlvoe9myMkqVrqk7bV-10" value="Assign service center/team" style="rounded=1;whiteSpace=wrap;html=1;" vertex="1" parent="1">
          <mxGeometry x="720" y="230" width="120" height="60" as="geometry" />
        </mxCell>
        <mxCell id="jEPlvoe9myMkqVrqk7bV-15" value="" style="edgeStyle=orthogonalEdgeStyle;rounded=0;orthogonalLoop=1;jettySize=auto;html=1;" edge="1" parent="1" source="jEPlvoe9myMkqVrqk7bV-12" target="jEPlvoe9myMkqVrqk7bV-14">
          <mxGeometry relative="1" as="geometry" />
        </mxCell>
        <mxCell id="jEPlvoe9myMkqVrqk7bV-12" value="" style="rhombus;whiteSpace=wrap;html=1;" vertex="1" parent="1">
          <mxGeometry x="920" y="240" width="40" height="40" as="geometry" />
        </mxCell>
        <mxCell id="jEPlvoe9myMkqVrqk7bV-19" style="edgeStyle=orthogonalEdgeStyle;rounded=0;orthogonalLoop=1;jettySize=auto;html=1;entryX=0.5;entryY=0;entryDx=0;entryDy=0;" edge="1" parent="1" source="jEPlvoe9myMkqVrqk7bV-14" target="jEPlvoe9myMkqVrqk7bV-16">
          <mxGeometry relative="1" as="geometry" />
        </mxCell>
        <mxCell id="jEPlvoe9myMkqVrqk7bV-14" value="Perform detailed technical diagnosis" style="rounded=1;whiteSpace=wrap;html=1;" vertex="1" parent="1">
          <mxGeometry x="880" y="320" width="120" height="60" as="geometry" />
        </mxCell>
        <mxCell id="jEPlvoe9myMkqVrqk7bV-21" value="Yes" style="edgeStyle=orthogonalEdgeStyle;rounded=0;orthogonalLoop=1;jettySize=auto;html=1;entryX=1;entryY=0.5;entryDx=0;entryDy=0;" edge="1" parent="1" source="jEPlvoe9myMkqVrqk7bV-16" target="jEPlvoe9myMkqVrqk7bV-20">
          <mxGeometry x="-0.6" relative="1" as="geometry">
            <Array as="points">
              <mxPoint x="940" y="500" />
            </Array>
            <mxPoint as="offset" />
          </mxGeometry>
        </mxCell>
        <mxCell id="jEPlvoe9myMkqVrqk7bV-27" value="No" style="edgeStyle=orthogonalEdgeStyle;rounded=0;orthogonalLoop=1;jettySize=auto;html=1;entryX=0.5;entryY=0;entryDx=0;entryDy=0;" edge="1" parent="1" source="jEPlvoe9myMkqVrqk7bV-16" target="jEPlvoe9myMkqVrqk7bV-25">
          <mxGeometry x="-0.8333" relative="1" as="geometry">
            <mxPoint as="offset" />
          </mxGeometry>
        </mxCell>
        <mxCell id="jEPlvoe9myMkqVrqk7bV-16" value="" style="rhombus;whiteSpace=wrap;html=1;" vertex="1" parent="1">
          <mxGeometry x="920" y="420" width="40" height="40" as="geometry" />
        </mxCell>
        <mxCell id="jEPlvoe9myMkqVrqk7bV-17" value="&lt;i&gt;Are new parts/ssembly required?&lt;/i&gt;" style="text;html=1;strokeColor=none;fillColor=none;align=center;verticalAlign=middle;whiteSpace=wrap;rounded=0;" vertex="1" parent="1">
          <mxGeometry x="820" y="410" width="100" height="60" as="geometry" />
        </mxCell>
        <mxCell id="jEPlvoe9myMkqVrqk7bV-23" value="" style="edgeStyle=orthogonalEdgeStyle;rounded=0;orthogonalLoop=1;jettySize=auto;html=1;" edge="1" parent="1" source="jEPlvoe9myMkqVrqk7bV-20" target="jEPlvoe9myMkqVrqk7bV-22">
          <mxGeometry relative="1" as="geometry" />
        </mxCell>
        <mxCell id="jEPlvoe9myMkqVrqk7bV-20" value="Book required parts" style="rounded=1;whiteSpace=wrap;html=1;" vertex="1" parent="1">
          <mxGeometry x="760" y="470" width="120" height="60" as="geometry" />
        </mxCell>
        <mxCell id="jEPlvoe9myMkqVrqk7bV-26" value="Yes" style="edgeStyle=orthogonalEdgeStyle;rounded=0;orthogonalLoop=1;jettySize=auto;html=1;entryX=0;entryY=0.5;entryDx=0;entryDy=0;" edge="1" parent="1" source="jEPlvoe9myMkqVrqk7bV-22" target="jEPlvoe9myMkqVrqk7bV-25">
          <mxGeometry x="-0.6" relative="1" as="geometry">
            <Array as="points">
              <mxPoint x="940" y="600" />
              <mxPoint x="940" y="660" />
            </Array>
            <mxPoint as="offset" />
          </mxGeometry>
        </mxCell>
        <mxCell id="jEPlvoe9myMkqVrqk7bV-29" value="No" style="edgeStyle=orthogonalEdgeStyle;rounded=0;orthogonalLoop=1;jettySize=auto;html=1;entryX=0.5;entryY=0;entryDx=0;entryDy=0;" edge="1" parent="1" source="jEPlvoe9myMkqVrqk7bV-22" target="jEPlvoe9myMkqVrqk7bV-28">
          <mxGeometry x="-0.5" relative="1" as="geometry">
            <mxPoint as="offset" />
          </mxGeometry>
        </mxCell>
        <mxCell id="jEPlvoe9myMkqVrqk7bV-22" value="" style="rhombus;whiteSpace=wrap;html=1;" vertex="1" parent="1">
          <mxGeometry x="800" y="580" width="40" height="40" as="geometry" />
        </mxCell>
        <mxCell id="jEPlvoe9myMkqVrqk7bV-24" value="&lt;i&gt;Are parts/assembly in stock?&lt;/i&gt;" style="text;html=1;strokeColor=none;fillColor=none;align=center;verticalAlign=middle;whiteSpace=wrap;rounded=0;" vertex="1" parent="1">
          <mxGeometry x="765" y="620" width="110" height="30" as="geometry" />
        </mxCell>
        <mxCell id="jEPlvoe9myMkqVrqk7bV-34" value="" style="edgeStyle=orthogonalEdgeStyle;rounded=0;orthogonalLoop=1;jettySize=auto;html=1;" edge="1" parent="1" source="jEPlvoe9myMkqVrqk7bV-25" target="jEPlvoe9myMkqVrqk7bV-33">
          <mxGeometry relative="1" as="geometry" />
        </mxCell>
        <mxCell id="jEPlvoe9myMkqVrqk7bV-25" value="" style="rhombus;whiteSpace=wrap;html=1;" vertex="1" parent="1">
          <mxGeometry x="980" y="640" width="40" height="40" as="geometry" />
        </mxCell>
        <mxCell id="jEPlvoe9myMkqVrqk7bV-31" value="" style="edgeStyle=orthogonalEdgeStyle;rounded=0;orthogonalLoop=1;jettySize=auto;html=1;" edge="1" parent="1" source="jEPlvoe9myMkqVrqk7bV-28" target="jEPlvoe9myMkqVrqk7bV-30">
          <mxGeometry relative="1" as="geometry" />
        </mxCell>
        <mxCell id="jEPlvoe9myMkqVrqk7bV-28" value="Order parts from vendor" style="rounded=1;whiteSpace=wrap;html=1;" vertex="1" parent="1">
          <mxGeometry x="660" y="640" width="120" height="60" as="geometry" />
        </mxCell>
        <mxCell id="jEPlvoe9myMkqVrqk7bV-32" style="edgeStyle=orthogonalEdgeStyle;rounded=0;orthogonalLoop=1;jettySize=auto;html=1;entryX=0.5;entryY=1;entryDx=0;entryDy=0;" edge="1" parent="1" source="jEPlvoe9myMkqVrqk7bV-30" target="jEPlvoe9myMkqVrqk7bV-25">
          <mxGeometry relative="1" as="geometry" />
        </mxCell>
        <mxCell id="jEPlvoe9myMkqVrqk7bV-30" value="Put parts into stock" style="rounded=1;whiteSpace=wrap;html=1;" vertex="1" parent="1">
          <mxGeometry x="660" y="740" width="120" height="60" as="geometry" />
        </mxCell>
        <mxCell id="jEPlvoe9myMkqVrqk7bV-38" style="edgeStyle=orthogonalEdgeStyle;rounded=0;orthogonalLoop=1;jettySize=auto;html=1;entryX=1;entryY=0.5;entryDx=0;entryDy=0;" edge="1" parent="1" source="jEPlvoe9myMkqVrqk7bV-33" target="jEPlvoe9myMkqVrqk7bV-36">
          <mxGeometry relative="1" as="geometry">
            <Array as="points">
              <mxPoint x="1140" y="860" />
            </Array>
          </mxGeometry>
        </mxCell>
        <mxCell id="jEPlvoe9myMkqVrqk7bV-33" value="Book technical specialist" style="rounded=1;whiteSpace=wrap;html=1;" vertex="1" parent="1">
          <mxGeometry x="1080" y="630" width="120" height="60" as="geometry" />
        </mxCell>
        <mxCell id="jEPlvoe9myMkqVrqk7bV-40" value="" style="edgeStyle=orthogonalEdgeStyle;rounded=0;orthogonalLoop=1;jettySize=auto;html=1;" edge="1" parent="1" source="jEPlvoe9myMkqVrqk7bV-36" target="jEPlvoe9myMkqVrqk7bV-39">
          <mxGeometry relative="1" as="geometry" />
        </mxCell>
        <mxCell id="jEPlvoe9myMkqVrqk7bV-36" value="" style="rhombus;whiteSpace=wrap;html=1;" vertex="1" parent="1">
          <mxGeometry x="600" y="840" width="40" height="40" as="geometry" />
        </mxCell>
        <mxCell id="jEPlvoe9myMkqVrqk7bV-42" value="" style="edgeStyle=orthogonalEdgeStyle;rounded=0;orthogonalLoop=1;jettySize=auto;html=1;" edge="1" parent="1" source="jEPlvoe9myMkqVrqk7bV-39" target="jEPlvoe9myMkqVrqk7bV-41">
          <mxGeometry relative="1" as="geometry" />
        </mxCell>
        <mxCell id="jEPlvoe9myMkqVrqk7bV-39" value="Maintain" style="rounded=1;whiteSpace=wrap;html=1;" vertex="1" parent="1">
          <mxGeometry x="420" y="830" width="120" height="60" as="geometry" />
        </mxCell>
        <mxCell id="jEPlvoe9myMkqVrqk7bV-43" value="No" style="edgeStyle=orthogonalEdgeStyle;rounded=0;orthogonalLoop=1;jettySize=auto;html=1;entryX=1;entryY=0.5;entryDx=0;entryDy=0;" edge="1" parent="1" source="jEPlvoe9myMkqVrqk7bV-41" target="jEPlvoe9myMkqVrqk7bV-12">
          <mxGeometry x="-0.9524" relative="1" as="geometry">
            <Array as="points">
              <mxPoint x="1220" y="960" />
              <mxPoint x="1220" y="260" />
            </Array>
            <mxPoint as="offset" />
          </mxGeometry>
        </mxCell>
        <mxCell id="jEPlvoe9myMkqVrqk7bV-45" value="Yes" style="edgeStyle=orthogonalEdgeStyle;rounded=0;orthogonalLoop=1;jettySize=auto;html=1;" edge="1" parent="1" source="jEPlvoe9myMkqVrqk7bV-41" target="jEPlvoe9myMkqVrqk7bV-44">
          <mxGeometry relative="1" as="geometry" />
        </mxCell>
        <mxCell id="jEPlvoe9myMkqVrqk7bV-41" value="" style="rhombus;whiteSpace=wrap;html=1;" vertex="1" parent="1">
          <mxGeometry x="460" y="940" width="40" height="40" as="geometry" />
        </mxCell>
        <mxCell id="jEPlvoe9myMkqVrqk7bV-44" value="" style="ellipse;html=1;shape=endState;fillColor=#000000;strokeColor=#000000;" vertex="1" parent="1">
          <mxGeometry x="300" y="945" width="30" height="30" as="geometry" />
        </mxCell>
        <mxCell id="jEPlvoe9myMkqVrqk7bV-46" value="&lt;i&gt;Is vehicle OK?&lt;/i&gt;" style="text;html=1;strokeColor=none;fillColor=none;align=center;verticalAlign=middle;whiteSpace=wrap;rounded=0;" vertex="1" parent="1">
          <mxGeometry x="450" y="980" width="60" height="30" as="geometry" />
        </mxCell>
      </root>
    </mxGraphModel>
  </diagram>
</mxfile>
